<?xml version="1.0" encoding="UTF-8"?>
<svg version="1.1" xmlns="http://www.w3.org/2000/svg" width="716" height="404">
<path d="M0 0 C236.28 0 472.56 0 716 0 C716 133.32 716 266.64 716 404 C479.72 404 243.44 404 0 404 C0 270.68 0 137.36 0 0 Z " fill="#FEFEFE" transform="translate(0,0)"/>
<path d="M0 0 C6.01845643 5.46192019 11.84274072 11.11325814 17.52734375 16.921875 C21.72393093 13.44655158 25.67301157 9.84459152 29.45776367 5.92529297 C56.53666369 -22.09381954 93.31897626 -39.62452054 131.52734375 -46.078125 C132.20619629 -46.19526855 132.88504883 -46.31241211 133.58447266 -46.43310547 C181.27100453 -54.29326612 232.49202235 -41.57838731 271.7734375 -13.82421875 C276.49544737 -10.3982624 281.11073169 -6.8928271 285.52734375 -3.078125 C286.69716797 -2.07265625 286.69716797 -2.07265625 287.890625 -1.046875 C290.4799355 1.23270937 293.01058119 3.5624101 295.52734375 5.921875 C296.02105469 6.38158691 296.51476562 6.84129883 297.0234375 7.31494141 C325.6372813 34.17163831 343.48980023 69.56111025 351.33984375 107.734375 C351.54706055 108.73557373 351.75427734 109.73677246 351.96777344 110.76831055 C354.47339914 123.68622651 354.68038745 136.70672058 354.7043457 149.82470703 C354.71063057 151.36393377 354.71727905 152.90315906 354.72425842 154.44238281 C354.74503662 159.43814081 354.75562628 164.43389827 354.765625 169.4296875 C354.76968046 171.16234222 354.77379759 172.89499679 354.77797508 174.62765121 C354.79695797 182.76267358 354.81121097 190.89768719 354.81958705 199.03272736 C354.82937585 208.38039705 354.85576715 217.72783101 354.89608794 227.07541764 C354.92631693 234.3352773 354.94106177 241.5950695 354.94436806 248.85499084 C354.94670786 253.176792 354.95553038 257.49833926 354.98082924 261.82007217 C355.00423914 265.88325843 355.0082919 269.94602566 354.99806786 274.00926208 C354.99757576 275.49102556 355.00379894 276.97281067 355.0176239 278.45450974 C355.15700469 294.29074734 350.82304134 308.36945701 339.52734375 319.921875 C327.87831175 329.40364523 316.40601929 332.77678232 301.52734375 331.921875 C288.05014648 330.33445483 278.1198621 323.75986768 269.43359375 313.5 C261.17678908 302.33301008 260.22928593 291.4142088 260.24023438 277.91552734 C260.23420218 276.4001326 260.22727592 274.88474119 260.2195282 273.36935425 C260.20469093 270.11735433 260.19590287 266.86541526 260.19181824 263.61338425 C260.18507076 258.45887965 260.16327451 253.30450412 260.13928223 248.15005493 C260.09040934 237.19902534 260.0580603 226.24796828 260.02734375 215.296875 C259.9941872 203.49217125 259.95804005 191.68751833 259.90321302 179.88289225 C259.88003256 174.77202342 259.86616565 169.66124412 259.85971832 164.55032802 C259.85372547 161.3527361 259.83958257 158.15521555 259.82337379 154.95766068 C259.81756151 153.48966665 259.81501209 152.02165494 259.81621361 150.5536499 C259.8322911 123.04553199 252.48689273 98.90374291 234.52734375 77.921875 C233.91632812 77.19742188 233.3053125 76.47296875 232.67578125 75.7265625 C220.09659819 62.03908137 202.21134043 53.57791463 184.52734375 48.921875 C183.69460938 48.695 182.861875 48.468125 182.00390625 48.234375 C157.39319739 42.644561 131.21063636 48.93172925 109.9140625 61.65625 C88.82072581 75.33248448 74.40182395 96.11098405 68.0703125 120.32421875 C66.9240352 125.80820725 66.40256921 131.13123877 66.402771 136.73020935 C66.40136085 137.37826965 66.3999507 138.02632995 66.39849782 138.69402844 C66.39487429 140.84609023 66.39816862 142.99808489 66.40136719 145.15014648 C66.39997083 146.70155386 66.39807047 148.25296086 66.39570618 149.80436707 C66.39122201 153.13767744 66.38935337 156.47097555 66.38924408 159.80428886 C66.3880985 165.08945167 66.37522036 170.37454544 66.35968018 175.65968323 C66.35710732 176.55403641 66.35453447 177.44838959 66.35188365 178.36984438 C66.34661726 180.19842471 66.34133178 182.02700499 66.33602762 183.85558522 C66.30101802 196.15039766 66.27435916 208.44512372 66.27685547 220.73999023 C66.27845107 229.04539052 66.26224514 237.35055407 66.22614884 245.6558786 C66.20780174 250.04164181 66.19824647 254.42701035 66.21062469 258.81280327 C66.22218121 262.94745895 66.21008261 267.08141174 66.18099022 271.21597481 C66.17442734 272.72021344 66.17608037 274.22451806 66.18728828 275.72872925 C66.28857382 290.57247285 63.44634943 304.37469561 53.52734375 315.921875 C52.98207031 316.56511719 52.43679688 317.20835937 51.875 317.87109375 C43.92619926 326.49320467 33.65872027 331.35456966 22 332.16796875 C6.95974898 332.44084417 -5.17783025 327.98190924 -16.21484375 317.40625 C-26.7710748 305.79074317 -28.9272079 294.29181796 -28.87329102 279.01147461 C-28.87904457 277.5302068 -28.88613183 276.04894367 -28.8944397 274.56768799 C-28.90947525 271.39481704 -28.91533372 268.22211352 -28.91391182 265.04920769 C-28.91186346 260.01550489 -28.93154602 254.98202377 -28.9540863 249.94837952 C-28.99495558 240.15895159 -29.01362488 230.36954151 -29.03025818 220.58004761 C-29.05264419 208.14555909 -29.08653412 195.71112293 -29.13745731 183.2767182 C-29.15718347 178.29044093 -29.16694583 173.30428013 -29.16840947 168.31796539 C-29.17119473 165.19234477 -29.18210025 162.0667866 -29.19491959 158.94119263 C-29.19913519 157.51154229 -29.20010378 156.08187728 -29.19724464 154.65222359 C-29.14810229 126.85124738 -34.61184794 101.21380621 -53.47265625 79.921875 C-53.99988281 79.25285156 -54.52710938 78.58382812 -55.0703125 77.89453125 C-67.43085548 62.55773959 -85.82300381 53.81196433 -104.47265625 48.921875 C-105.35695312 48.67566406 -106.24125 48.42945312 -107.15234375 48.17578125 C-131.67851488 42.49479912 -158.05196039 49.07730621 -179.18359375 61.8203125 C-200.12143192 75.19864616 -215.29825171 95.98321804 -220.97319698 120.24351406 C-223.16578704 132.00132487 -223.76777628 143.79740707 -223.74389648 155.73803711 C-223.74830082 157.23169229 -223.75360904 158.72534503 -223.75973511 160.21899414 C-223.77109664 163.39554777 -223.77668408 166.57203596 -223.7776165 169.74860954 C-223.77958222 174.78091692 -223.79776578 179.81309125 -223.81837463 184.84535217 C-223.86720476 197.33057993 -223.89846399 209.81584289 -223.91967773 222.30114746 C-223.93623531 232.03761138 -223.95909967 241.77395812 -224.00269848 251.51034361 C-224.02436059 256.50445919 -224.03254382 261.4983514 -224.03030574 266.49251068 C-224.03198051 269.60252766 -224.04607578 272.71240009 -224.06351852 275.82236481 C-224.06908301 277.25495661 -224.06963584 278.68757881 -224.06458092 280.1201725 C-224.01749327 295.03639727 -227.26079925 307.72150455 -237.78515625 318.796875 C-247.85838442 328.26165315 -260.25196333 332.33831425 -273.9296875 332.19921875 C-286.96135846 331.17909897 -298.43306721 324.982933 -307.36328125 315.609375 C-317.06678883 303.24638757 -318.77530099 290.08640151 -318.76318359 274.85644531 C-318.76917832 273.34553702 -318.77598602 271.83463177 -318.78353882 270.32373047 C-318.80113465 266.23565321 -318.80589218 262.14765985 -318.80717039 258.05954838 C-318.80859903 255.49050354 -318.81288258 252.92147951 -318.81816483 250.35243988 C-318.83666142 241.34529794 -318.84483808 232.33821498 -318.84326172 223.33105469 C-318.84206842 215.01242896 -318.86301067 206.6940661 -318.89474905 198.37550664 C-318.9211934 191.18086414 -318.93161705 183.98630577 -318.9303509 176.79161525 C-318.92984835 172.51895453 -318.93512511 168.24652625 -318.956707 163.9739151 C-319.10428677 132.5501399 -317.62443813 101.00678236 -304.47265625 71.921875 C-304.05628906 70.87515625 -303.63992188 69.8284375 -303.2109375 68.75 C-290.90541929 38.14487161 -269.33941149 11.02907398 -243.15234375 -8.80419922 C-241.65717744 -9.93817855 -240.1734476 -11.08720138 -238.69140625 -12.23828125 C-215.16126041 -30.06307547 -186.421134 -41.1885671 -157.47265625 -46.078125 C-156.79380371 -46.19526855 -156.11495117 -46.31241211 -155.41552734 -46.43310547 C-100.29774483 -55.51815755 -41.3970278 -36.99852106 0 0 Z " fill="#545454" transform="translate(338.47265625,60.078125)"/>
<path d="M0 0 C0.77988281 0.6703125 1.55976562 1.340625 2.36328125 2.03125 C4.95259175 4.31083437 7.48323744 6.6405351 10 9 C10.49371094 9.45971191 10.98742187 9.91942383 11.49609375 10.39306641 C40.10993755 37.24976331 57.96245648 72.63923525 65.8125 110.8125 C66.1233252 112.3142981 66.1233252 112.3142981 66.44042969 113.84643555 C68.94605539 126.76435151 69.1530437 139.78484558 69.17700195 152.90283203 C69.18328682 154.44205877 69.1899353 155.98128406 69.19691467 157.52050781 C69.21769287 162.51626581 69.22828253 167.51202327 69.23828125 172.5078125 C69.24233671 174.24046722 69.24645384 175.97312179 69.25063133 177.70577621 C69.26961422 185.84079858 69.28386722 193.97581219 69.2922433 202.11085236 C69.3020321 211.45852205 69.3284234 220.80595601 69.36874419 230.15354264 C69.39897318 237.4134023 69.41371802 244.6731945 69.41702431 251.93311584 C69.41936411 256.254917 69.42818663 260.57646426 69.45348549 264.89819717 C69.47689539 268.96138343 69.48094815 273.02415066 69.47072411 277.08738708 C69.47023201 278.56915056 69.47645519 280.05093567 69.49028015 281.53263474 C69.62966094 297.36887234 65.29569759 311.44758201 54 323 C42.350968 332.48177023 30.87867554 335.85490732 16 335 C2.52280273 333.41257983 -7.40748165 326.83799268 -16.09375 316.578125 C-24.35055467 305.41113508 -25.29805782 294.4923338 -25.28710938 280.99365234 C-25.29314157 279.4782576 -25.30006783 277.96286619 -25.30781555 276.44747925 C-25.32265282 273.19547933 -25.33144088 269.94354026 -25.33552551 266.69150925 C-25.34227299 261.53700465 -25.36406924 256.38262912 -25.38806152 251.22817993 C-25.43693441 240.27715034 -25.46928345 229.32609328 -25.5 218.375 C-25.53315655 206.57029625 -25.5693037 194.76564333 -25.62413073 182.96101725 C-25.64731119 177.85014842 -25.6611781 172.73936912 -25.66762543 167.62845302 C-25.67361828 164.4308611 -25.68776118 161.23334055 -25.70396996 158.03578568 C-25.70978224 156.56779165 -25.71233166 155.09977994 -25.71113014 153.6317749 C-25.69505265 126.12365699 -33.04045102 101.98186791 -51 81 C-51.91652344 79.91332031 -51.91652344 79.91332031 -52.8515625 78.8046875 C-65.43074556 65.11720637 -83.31600332 56.65603963 -101 52 C-101.83273437 51.773125 -102.66546875 51.54625 -103.5234375 51.3125 C-128.13414636 45.722686 -154.31670739 52.00985425 -175.61328125 64.734375 C-196.35039643 78.17964702 -211.33774913 99.01422291 -217.41015625 122.98046875 C-218.63835479 129.2678692 -219.32101124 135.63348189 -220 142 C-220.33 142 -220.66 142 -221 142 C-221.06731323 141.13387085 -221.06731323 141.13387085 -221.13598633 140.25024414 C-224.68143769 95.66939438 -238.58794483 56.90900976 -267 22 C-261.41729761 9.30576642 -245.25931171 -2.36708789 -234 -10 C-232.9788208 -10.69851074 -232.9788208 -10.69851074 -231.93701172 -11.41113281 C-208.17942461 -27.47921744 -182.30183357 -38.21966387 -154 -43 C-153.32114746 -43.11714355 -152.64229492 -43.23428711 -151.94287109 -43.35498047 C-98.49726696 -52.16440775 -40.83299049 -35.26814046 0 0 Z " fill="#000000" transform="translate(624,57)"/>
<path d="M0 0 C0.99 0 1.98 0 3 0 C41.88400841 41.71325529 49.29570273 97.84305286 49.36744571 152.19505453 C49.37113509 154.64463392 49.37739686 157.09419413 49.3844471 159.54376602 C49.40876713 168.12749347 49.42196006 176.71116176 49.42553711 185.29492188 C49.42918265 193.23979833 49.45919567 201.18429108 49.50094169 209.12905014 C49.53579368 216.00783157 49.55108792 222.88648625 49.55178314 229.76535523 C49.55256937 233.84912316 49.56100649 237.93249564 49.58978081 242.0161705 C49.61622847 245.85304024 49.618021 249.6891931 49.60212517 253.52611351 C49.59948994 255.57445734 49.62129738 257.62278908 49.64431763 259.67100525 C49.53748973 273.46524735 46.12691796 286.37492704 37 297 C36.18208984 297.96486328 36.18208984 297.96486328 35.34765625 298.94921875 C27.39885551 307.57132967 17.13137652 312.43269466 5.47265625 313.24609375 C-9.56759477 313.51896917 -21.705174 309.06003424 -32.7421875 298.484375 C-43.40960791 286.7465214 -45.44722793 275.11087713 -45.47998047 259.68164062 C-45.49393574 258.15585701 -45.50913298 256.63008434 -45.52546692 255.10432434 C-45.56568407 250.98141922 -45.58744384 246.8586125 -45.60490561 242.73555565 C-45.62140556 239.27041956 -45.6473448 235.80538 -45.67330945 232.3403039 C-45.73471427 224.14081417 -45.78144594 215.94133336 -45.81835938 207.74169922 C-45.85632733 199.35190084 -45.91609251 190.96247134 -45.98743331 182.57289553 C-46.04845954 175.32059787 -46.09680566 168.06828991 -46.13524354 160.81583738 C-46.15811633 156.5069674 -46.18503911 152.19824052 -46.22369003 147.88948059 C-46.67045602 96.16416143 -38.22419754 48.19093918 -5.5625 6.5 C-5.05412598 5.84596191 -4.54575195 5.19192383 -4.02197266 4.51806641 C-2.75385885 2.95047184 -1.38406777 1.46622705 0 0 Z " fill="#666666" transform="translate(355,79)"/>
</svg>
